<?xml version="1.0" standalone="no"?><svg xmlns="http://www.w3.org/2000/svg" viewBox="0 0 1440 320"><path fill="#cf8263" fill-opacity="1" d="M0,128L15,128C30,128,60,128,90,117.3C120,107,150,85,180,112C210,139,240,213,270,224C300,235,330,181,360,170.7C390,160,420,192,450,181.3C480,171,510,117,540,117.3C570,117,600,171,630,192C660,213,690,203,720,186.7C750,171,780,149,810,160C840,171,870,213,900,245.3C930,277,960,299,990,266.7C1020,235,1050,149,1080,112C1110,75,1140,85,1170,96C1200,107,1230,117,1260,101.3C1290,85,1320,43,1350,53.3C1380,64,1410,128,1425,160L1440,192L1440,0L1425,0C1410,0,1380,0,1350,0C1320,0,1290,0,1260,0C1230,0,1200,0,1170,0C1140,0,1110,0,1080,0C1050,0,1020,0,990,0C960,0,930,0,900,0C870,0,840,0,810,0C780,0,750,0,720,0C690,0,660,0,630,0C600,0,570,0,540,0C510,0,480,0,450,0C420,0,390,0,360,0C330,0,300,0,270,0C240,0,210,0,180,0C150,0,120,0,90,0C60,0,30,0,15,0L0,0Z"></path></svg>